<?xml version="1.0" encoding="UTF-8"?>
<svg xmlns="http://www.w3.org/2000/svg" xmlns:xlink="http://www.w3.org/1999/xlink" width="100pt" height="100pt" viewBox="0 0 100 100" version="1.1">
<g id="surface1217813">
<path style=" stroke:none;fill-rule:nonzero;fill:rgb(10.196078%,73.72549%,61.176471%);fill-opacity:1;" d="M 76 84 L 39 84 C 34.582031 84 31 80.417969 31 76 L 31 39 C 31 34.582031 34.582031 31 39 31 L 76 31 C 80.417969 31 84 34.582031 84 39 L 84 76 C 84 80.417969 80.417969 84 76 84 Z M 76 84 "/>
<path style=" stroke:none;fill-rule:nonzero;fill:rgb(60.784314%,34.901961%,71.372549%);fill-opacity:1;" d="M 61 69 L 24 69 C 19.582031 69 16 65.417969 16 61 L 16 24 C 16 19.582031 19.582031 16 24 16 L 61 16 C 65.417969 16 69 19.582031 69 24 L 69 61 C 69 65.417969 65.417969 69 61 69 Z M 61 69 "/>
<path style=" stroke:none;fill-rule:nonzero;fill:rgb(92.54902%,94.117647%,94.509804%);fill-opacity:1;" d="M 37.5 53.5 C 37.019531 53.5 36.535156 53.328125 36.152344 52.980469 L 28.152344 44.980469 C 27.335938 44.238281 27.277344 42.972656 28.019531 42.152344 C 28.761719 41.339844 30.027344 41.277344 30.84375 42.019531 L 37.472656 48.773438 L 54.125 32.046875 C 54.929688 31.285156 56.191406 31.320312 56.953125 32.125 C 57.710938 32.929688 57.675781 34.195312 56.871094 34.953125 L 38.871094 52.953125 C 38.488281 53.316406 37.992188 53.5 37.5 53.5 Z M 37.5 53.5 "/>
<path style=" stroke:none;fill-rule:nonzero;fill:rgb(0%,0%,0%);fill-opacity:1;" d="M 76 85 L 39 85 C 34.039062 85 30 80.964844 30 76 L 30 74 C 30 73.445312 30.449219 73 31 73 C 31.550781 73 32 73.445312 32 74 L 32 76 C 32 79.859375 35.140625 83 39 83 L 76 83 C 79.859375 83 83 79.859375 83 76 L 83 39 C 83 35.140625 79.859375 32 76 32 L 74 32 C 73.449219 32 73 31.554688 73 31 C 73 30.445312 73.449219 30 74 30 L 76 30 C 80.960938 30 85 34.035156 85 39 L 85 76 C 85 80.964844 80.960938 85 76 85 Z M 76 85 "/>
<path style=" stroke:none;fill-rule:nonzero;fill:rgb(0%,0%,0%);fill-opacity:1;" d="M 60.5 65 L 24.5 65 C 22.019531 65 20 62.980469 20 60.5 L 20 24.5 C 20 22.019531 22.019531 20 24.5 20 L 53.5 20 C 53.777344 20 54 20.222656 54 20.5 C 54 20.777344 53.777344 21 53.5 21 L 24.5 21 C 22.570312 21 21 22.570312 21 24.5 L 21 60.5 C 21 62.429688 22.570312 64 24.5 64 L 60.5 64 C 62.429688 64 64 62.429688 64 60.5 L 64 43 C 64 42.722656 64.222656 42.5 64.5 42.5 C 64.777344 42.5 65 42.722656 65 43 L 65 60.5 C 65 62.980469 62.980469 65 60.5 65 Z M 64.5 40 C 64.222656 40 64 39.777344 64 39.5 L 64 35.5 C 64 35.222656 64.222656 35 64.5 35 C 64.777344 35 65 35.222656 65 35.5 L 65 39.5 C 65 39.777344 64.777344 40 64.5 40 Z M 64.5 34 C 64.222656 34 64 33.777344 64 33.5 L 64 31.5 C 64 31.222656 64.222656 31 64.5 31 C 64.777344 31 65 31.222656 65 31.5 L 65 33.5 C 65 33.777344 64.777344 34 64.5 34 Z M 64.5 34 "/>
<path style=" stroke:none;fill-rule:nonzero;fill:rgb(0%,0%,0%);fill-opacity:1;" d="M 61 70 L 24 70 C 19.039062 70 15 65.964844 15 61 L 15 24 C 15 19.035156 19.039062 15 24 15 L 61 15 C 65.960938 15 70 19.035156 70 24 L 70 61 C 70 65.964844 65.960938 70 61 70 Z M 24 17 C 20.140625 17 17 20.140625 17 24 L 17 61 C 17 64.859375 20.140625 68 24 68 L 61 68 C 64.859375 68 68 64.859375 68 61 L 68 24 C 68 20.140625 64.859375 17 61 17 Z M 24 17 "/>
<path style=" stroke:none;fill-rule:nonzero;fill:rgb(0%,0%,0%);fill-opacity:1;" d="M 37.5 54 C 36.875 54 36.277344 53.769531 35.816406 53.347656 L 27.800781 45.332031 C 27.324219 44.902344 27.035156 44.285156 27.003906 43.617188 C 26.972656 42.953125 27.199219 42.3125 27.648438 41.816406 C 28.578125 40.800781 30.164062 40.726562 31.179688 41.652344 L 37.472656 48.0625 L 53.773438 31.691406 C 54.269531 31.222656 54.921875 30.996094 55.570312 31 C 56.238281 31.019531 56.859375 31.296875 57.316406 31.78125 C 57.777344 32.269531 58.019531 32.902344 58 33.570312 C 57.980469 34.238281 57.703125 34.859375 57.214844 35.316406 L 39.226562 53.308594 C 38.75 53.757812 38.140625 54 37.5 54 Z M 29.507812 42 C 29.101562 42 28.6875 42.164062 28.390625 42.492188 C 28.121094 42.789062 27.984375 43.171875 28.003906 43.570312 C 28.019531 43.972656 28.195312 44.339844 28.488281 44.609375 L 36.507812 52.628906 C 37.035156 53.105469 37.976562 53.109375 38.53125 52.589844 L 56.519531 34.601562 C 56.820312 34.316406 56.988281 33.945312 57 33.542969 C 57.011719 33.144531 56.863281 32.761719 56.589844 32.472656 C 56.316406 32.179688 55.941406 32.011719 55.539062 32 C 55.148438 31.980469 54.761719 32.132812 54.46875 32.410156 L 37.828125 49.125 C 37.734375 49.21875 37.605469 49.273438 37.472656 49.273438 C 37.339844 49.273438 37.210938 49.21875 37.117188 49.125 L 30.488281 42.371094 C 30.214844 42.121094 29.863281 42 29.507812 42 Z M 29.507812 42 "/>
</g>
</svg>
